<?xml version="1.0" encoding="utf-8"?>
<!-- Generator: Adobe Illustrator 16.0.0, SVG Export Plug-In . SVG Version: 6.00 Build 0)  -->
<!DOCTYPE svg PUBLIC "-//W3C//DTD SVG 1.1//EN" "http://www.w3.org/Graphics/SVG/1.1/DTD/svg11.dtd">
<svg version="1.1" id="_x32_" xmlns="http://www.w3.org/2000/svg" xmlns:xlink="http://www.w3.org/1999/xlink" x="0px" y="0px"
	 width="800px" height="800px" viewBox="0 0 800 800" enable-background="new 0 0 800 800" xml:space="preserve">
<g>
	<path fill="#4B4B4B" d="M426.36,192.721c35.084,7.341,69.534-15.149,76.887-50.271c7.366-35.109-15.149-69.536-50.234-76.9
		c-35.146-7.353-69.573,15.137-76.926,50.26C368.733,150.917,391.238,185.343,426.36,192.721z"/>
	<path fill="#4B4B4B" d="M795.714,713.27L653.227,520.285c-8.632-11.684-21.554-10.922-28.742,1.707l-28.921,50.918
		c-3.974,7-10.087,10.506-16.428,10.594l-102.314-82.697c3.747-5.822,5.202-13.088,3.241-20.3l-30.947-202.304
		c-4.404-26.414-24.935-52.068-73.713-76.648l-147.84-69.331c-16.099-6.682-26.882-3.747-40.222,6.987l-83.685,74.823
		c-11.175,8.354-13.466,24.2-5.112,35.375c5.809,7.785,15.238,11.15,24.223,9.721l2.672-3.278l393.477,318.008l-91.328,138.602
		c-7.998,12.138-2.646,22.072,11.872,22.072h345.534C799.524,734.533,804.345,724.953,795.714,713.27z M229.336,300.807
		l-74.055-59.84l57.79-36.703l51.184,36.539L229.336,300.807z M344.407,393.796l38.69-58.372l36.185,118.883L344.407,393.796z"/>
	<path fill="#4B4B4B" d="M390.592,497.921l-72.42-64.549l-111.719-93.227L5.694,685.213c-10.073,14.567-6.43,34.539,8.15,44.625
		c14.568,10.063,34.565,6.43,44.628-8.15l179.381-221.184L324.5,553.18c0,0-40.299,141.475-40.83,143.232
		c-4.834,16.213,4.367,33.287,20.58,38.135c16.199,4.859,33.261-4.354,38.134-20.58l61.245-151.854
		C414.056,536.08,411.12,515.539,390.592,497.921z"/>
</g>
</svg>
